{"asset":{"version":"2.0","generator":"THREE.GLTFExporter"},"scenes":[{"name":"AuxScene","nodes":[12]}],"scene":0,"nodes":[{"mesh":0},{"name":"group_out_door_line","children":[0]},{"mesh":1},{"name":"group_out_door_mesh","children":[2]},{"mesh":2},{"name":"group_out_windows_line","children":[4]},{"mesh":3},{"name":"group_out_windows_mesh","children":[6]},{"mesh":4},{"name":"group_out_solid_line","children":[8]},{"mesh":5},{"name":"group_out_solid_mesh","children":[10]},{"name":"group_floor_out_-1","extras":{"wallHeigth":3000},"children":[1,3,5,7,9,11]}],"bufferViews":[{"buffer":0,"byteOffset":0,"byteLength":60,"target":34962,"byteStride":12},{"buffer":0,"byteOffset":60,"byteLength":48,"target":34962,"byteStride":12},{"buffer":0,"byteOffset":108,"byteLength":48,"target":34962,"byteStride":12},{"buffer":0,"byteOffset":156,"byteLength":12,"target":34963},{"buffer":0,"byteOffset":168,"byteLength":108,"target":34962,"byteStride":12},{"buffer":0,"byteOffset":276,"byteLength":96,"target":34962,"byteStride":12},{"buffer":0,"byteOffset":372,"byteLength":96,"target":34962,"byteStride":12},{"buffer":0,"byteOffset":468,"byteLength":36,"target":34963},{"buffer":0,"byteOffset":504,"byteLength":3360,"target":34962,"byteStride":12},{"buffer":0,"byteOffset":3864,"byteLength":7344,"target":34962,"byteStride":12},{"buffer":0,"byteOffset":11208,"byteLength":4896,"target":34962,"byteStride":8},{"buffer":0,"byteOffset":16104,"byteLength":7344,"target":34962,"byteStride":12}],"buffers":[{"byteLength":23448,"uri":"data:application/octet-stream;base64,"}],"accessors":[{"bufferView":0,"componentType":5126,"count":5,"max":[-28670,2200,-19299],"min":[-28670,0,-28022.576171875],"type":"VEC3"},{"bufferView":1,"componentType":5126,"count":4,"max":[1,0,0],"min":[-1,0,0],"type":"VEC3"},{"bufferView":2,"componentType":5126,"count":4,"max":[-28670,2200,-19299],"min":[-28670,0,-28022.576171875],"type":"VEC3"},{"bufferView":3,"componentType":5123,"count":6,"max":[3],"min":[0],"type":"SCALAR"},{"bufferView":4,"componentType":5126,"count":9,"max":[24674,2800,-63294],"min":[18899,200,-63413.59375],"type":"VEC3"},{"bufferView":5,"componentType":5126,"count":8,"max":[1,6.123234262925839e-17,1],"min":[-1,-6.123234262925839e-17,-1],"type":"VEC3"},{"bufferView":6,"componentType":5126,"count":8,"max":[24674,2800,-63294],"min":[18899,200,-63413.59375],"type":"VEC3"},{"bufferView":7,"componentType":5123,"count":18,"max":[7],"min":[0],"type":"SCALAR"},{"bufferView":8,"componentType":5126,"count":280,"max":[70449,3000,4650],"min":[-46504,0,-63599],"type":"VEC3"},{"bufferView":9,"componentType":5126,"count":612,"max":[70449,3000,4650],"min":[-46504,0,-63599],"type":"VEC3"},{"bufferView":10,"componentType":5126,"count":612,"max":[70449,4650],"min":[-63599,-63599],"type":"VEC2"},{"bufferView":11,"componentType":5126,"count":612,"max":[1,1,1],"min":[-1,-1,-1],"type":"VEC3"}],"materials":[{"pbrMetallicRoughness":{"baseColorFactor":[0.5333333333333333,0.5490196078431373,0.8,1],"metallicFactor":0.5,"roughnessFactor":0.5},"alphaMode":"BLEND"},{"pbrMetallicRoughness":{"baseColorFactor":[0,1,0,1],"metallicFactor":0,"roughnessFactor":1},"alphaMode":"BLEND","doubleSided":true},{"pbrMetallicRoughness":{"baseColorFactor":[0.5333333333333333,0.5490196078431373,0.8,1],"metallicFactor":0.5,"roughnessFactor":0.5},"alphaMode":"BLEND"},{"pbrMetallicRoughness":{"baseColorFactor":[0,1,1,1],"metallicFactor":0,"roughnessFactor":1},"alphaMode":"BLEND","doubleSided":true},{"pbrMetallicRoughness":{"baseColorFactor":[0.5333333333333333,0.5490196078431373,0.8,1],"metallicFactor":0.5,"roughnessFactor":0.5},"alphaMode":"BLEND"},{"pbrMetallicRoughness":{"baseColorFactor":[0,0,1,0.2],"metallicFactor":0,"roughnessFactor":1},"alphaMode":"BLEND","doubleSided":true}],"meshes":[{"primitives":[{"mode":3,"attributes":{"POSITION":0},"material":0}]},{"primitives":[{"mode":4,"attributes":{"NORMAL":1,"POSITION":2},"indices":3,"material":1}]},{"primitives":[{"mode":3,"attributes":{"POSITION":4},"material":2}]},{"primitives":[{"mode":4,"attributes":{"NORMAL":5,"POSITION":6},"indices":7,"material":3}]},{"primitives":[{"mode":1,"attributes":{"POSITION":8},"material":4}]},{"primitives":[{"mode":4,"attributes":{"POSITION":9,"TEXCOORD_0":10,"NORMAL":11},"extras":{"mergedUserData":[{}]},"material":5}]}]}