{"asset":{"version":"2.0","generator":"THREE.GLTFExporter"},"scenes":[{"name":"AuxScene","nodes":[8]}],"scene":0,"nodes":[{"name":"group_out_door_line"},{"name":"group_out_door_mesh"},{"name":"group_out_windows_line"},{"name":"group_out_windows_mesh"},{"mesh":0},{"name":"group_out_solid_line","children":[4]},{"mesh":1},{"name":"group_out_solid_mesh","children":[6]},{"name":"group_floor_out_17","extras":{"wallHeigth":3000},"children":[0,1,2,3,5,7]}],"bufferViews":[{"buffer":0,"byteOffset":0,"byteLength":1152,"target":34962,"byteStride":12},{"buffer":0,"byteOffset":1152,"byteLength":2160,"target":34962,"byteStride":12},{"buffer":0,"byteOffset":3312,"byteLength":1440,"target":34962,"byteStride":8},{"buffer":0,"byteOffset":4752,"byteLength":2160,"target":34962,"byteStride":12}],"buffers":[{"byteLength":6912,"uri":"data:application/octet-stream;base64,"}],"accessors":[{"bufferView":0,"componentType":5126,"count":96,"max":[63449,3000,1600],"min":[-1100,0,-17199],"type":"VEC3"},{"bufferView":1,"componentType":5126,"count":180,"max":[63449,3000,1600],"min":[-1100,0,-17199],"type":"VEC3"},{"bufferView":2,"componentType":5126,"count":180,"max":[63449,1600],"min":[-17199,-17199],"type":"VEC2"},{"bufferView":3,"componentType":5126,"count":180,"max":[1,1,1],"min":[-1,-1,-1],"type":"VEC3"}],"materials":[{"pbrMetallicRoughness":{"baseColorFactor":[0.5333333333333333,0.5490196078431373,0.8,1],"metallicFactor":0.5,"roughnessFactor":0.5},"alphaMode":"BLEND"},{"pbrMetallicRoughness":{"baseColorFactor":[0,0,1,0.2],"metallicFactor":0,"roughnessFactor":1},"alphaMode":"BLEND","doubleSided":true}],"meshes":[{"primitives":[{"mode":1,"attributes":{"POSITION":0},"material":0}]},{"primitives":[{"mode":4,"attributes":{"POSITION":1,"TEXCOORD_0":2,"NORMAL":3},"extras":{"mergedUserData":[{}]},"material":1}]}]}