{"asset":{"version":"2.0","generator":"THREE.GLTFExporter"},"scenes":[{"name":"AuxScene","nodes":[28]}],"scene":0,"nodes":[{"name":"group_out_door_line"},{"name":"group_out_door_mesh"},{"mesh":0},{"mesh":1},{"mesh":2},{"mesh":3},{"mesh":4},{"mesh":5},{"mesh":6},{"mesh":7},{"mesh":8},{"mesh":9},{"name":"group_out_windows_line","children":[2,3,4,5,6,7,8,9,10,11]},{"mesh":10},{"mesh":11},{"mesh":12},{"mesh":13},{"mesh":14},{"mesh":15},{"mesh":16},{"mesh":17},{"mesh":18},{"mesh":19},{"name":"group_out_windows_mesh","children":[13,14,15,16,17,18,19,20,21,22]},{"mesh":20},{"name":"group_out_solid_line","children":[24]},{"mesh":21},{"name":"group_out_solid_mesh","children":[26]},{"name":"group_floor_out_6","extras":{"wallHeigth":3000},"children":[0,1,12,23,25,27]}],"bufferViews":[{"buffer":0,"byteOffset":0,"byteLength":60,"target":34962,"byteStride":12},{"buffer":0,"byteOffset":60,"byteLength":60,"target":34962,"byteStride":12},{"buffer":0,"byteOffset":120,"byteLength":60,"target":34962,"byteStride":12},{"buffer":0,"byteOffset":180,"byteLength":60,"target":34962,"byteStride":12},{"buffer":0,"byteOffset":240,"byteLength":60,"target":34962,"byteStride":12},{"buffer":0,"byteOffset":300,"byteLength":60,"target":34962,"byteStride":12},{"buffer":0,"byteOffset":360,"byteLength":60,"target":34962,"byteStride":12},{"buffer":0,"byteOffset":420,"byteLength":60,"target":34962,"byteStride":12},{"buffer":0,"byteOffset":480,"byteLength":60,"target":34962,"byteStride":12},{"buffer":0,"byteOffset":540,"byteLength":60,"target":34962,"byteStride":12},{"buffer":0,"byteOffset":600,"byteLength":48,"target":34962,"byteStride":12},{"buffer":0,"byteOffset":648,"byteLength":48,"target":34962,"byteStride":12},{"buffer":0,"byteOffset":696,"byteLength":12,"target":34963},{"buffer":0,"byteOffset":708,"byteLength":48,"target":34962,"byteStride":12},{"buffer":0,"byteOffset":756,"byteLength":48,"target":34962,"byteStride":12},{"buffer":0,"byteOffset":804,"byteLength":12,"target":34963},{"buffer":0,"byteOffset":816,"byteLength":48,"target":34962,"byteStride":12},{"buffer":0,"byteOffset":864,"byteLength":48,"target":34962,"byteStride":12},{"buffer":0,"byteOffset":912,"byteLength":12,"target":34963},{"buffer":0,"byteOffset":924,"byteLength":48,"target":34962,"byteStride":12},{"buffer":0,"byteOffset":972,"byteLength":48,"target":34962,"byteStride":12},{"buffer":0,"byteOffset":1020,"byteLength":12,"target":34963},{"buffer":0,"byteOffset":1032,"byteLength":48,"target":34962,"byteStride":12},{"buffer":0,"byteOffset":1080,"byteLength":48,"target":34962,"byteStride":12},{"buffer":0,"byteOffset":1128,"byteLength":12,"target":34963},{"buffer":0,"byteOffset":1140,"byteLength":48,"target":34962,"byteStride":12},{"buffer":0,"byteOffset":1188,"byteLength":48,"target":34962,"byteStride":12},{"buffer":0,"byteOffset":1236,"byteLength":12,"target":34963},{"buffer":0,"byteOffset":1248,"byteLength":48,"target":34962,"byteStride":12},{"buffer":0,"byteOffset":1296,"byteLength":48,"target":34962,"byteStride":12},{"buffer":0,"byteOffset":1344,"byteLength":12,"target":34963},{"buffer":0,"byteOffset":1356,"byteLength":48,"target":34962,"byteStride":12},{"buffer":0,"byteOffset":1404,"byteLength":48,"target":34962,"byteStride":12},{"buffer":0,"byteOffset":1452,"byteLength":12,"target":34963},{"buffer":0,"byteOffset":1464,"byteLength":48,"target":34962,"byteStride":12},{"buffer":0,"byteOffset":1512,"byteLength":48,"target":34962,"byteStride":12},{"buffer":0,"byteOffset":1560,"byteLength":12,"target":34963},{"buffer":0,"byteOffset":1572,"byteLength":48,"target":34962,"byteStride":12},{"buffer":0,"byteOffset":1620,"byteLength":48,"target":34962,"byteStride":12},{"buffer":0,"byteOffset":1668,"byteLength":12,"target":34963},{"buffer":0,"byteOffset":1680,"byteLength":1248,"target":34962,"byteStride":12},{"buffer":0,"byteOffset":2928,"byteLength":2592,"target":34962,"byteStride":12},{"buffer":0,"byteOffset":5520,"byteLength":1728,"target":34962,"byteStride":8},{"buffer":0,"byteOffset":7248,"byteLength":2592,"target":34962,"byteStride":12}],"buffers":[{"byteLength":9840,"uri":"data:application/octet-stream;base64,"}],"accessors":[{"bufferView":0,"componentType":5126,"count":5,"max":[57119,2800,250],"min":[55379,200,250],"type":"VEC3"},{"bufferView":1,"componentType":5126,"count":5,"max":[49119,2800,1600],"min":[47229,200,1600],"type":"VEC3"},{"bufferView":2,"componentType":5126,"count":5,"max":[38469,2800,-41549],"min":[36729,200,-41549],"type":"VEC3"},{"bufferView":3,"componentType":5126,"count":5,"max":[38049,2800,345.3464050292969],"min":[35579,200,250],"type":"VEC3"},{"bufferView":4,"componentType":5126,"count":5,"max":[35119,2800,250],"min":[33979,200,250],"type":"VEC3"},{"bufferView":5,"componentType":5126,"count":5,"max":[32269,2800,350],"min":[31469.1953125,200,250],"type":"VEC3"},{"bufferView":6,"componentType":5126,"count":5,"max":[30219,2800,250],"min":[28479,200,250],"type":"VEC3"},{"bufferView":7,"componentType":5126,"count":5,"max":[27619,2800,250],"min":[25879,200,250],"type":"VEC3"},{"bufferView":8,"componentType":5126,"count":5,"max":[14119,2800,1600],"min":[10629,200,1600],"type":"VEC3"},{"bufferView":9,"componentType":5126,"count":5,"max":[7019,2800,250],"min":[5279,200,250],"type":"VEC3"},{"bufferView":10,"componentType":5126,"count":4,"max":[1,6.123234262925839e-17,1],"min":[0,-6.123234262925839e-17,-1],"type":"VEC3"},{"bufferView":11,"componentType":5126,"count":4,"max":[57119,2800,250],"min":[55379,200,250],"type":"VEC3"},{"bufferView":12,"componentType":5123,"count":6,"max":[3],"min":[0],"type":"SCALAR"},{"bufferView":13,"componentType":5126,"count":4,"max":[1,6.123234262925839e-17,1],"min":[0,-6.123234262925839e-17,-1],"type":"VEC3"},{"bufferView":14,"componentType":5126,"count":4,"max":[49119,2800,1600],"min":[47229,200,1600],"type":"VEC3"},{"bufferView":15,"componentType":5123,"count":6,"max":[3],"min":[0],"type":"SCALAR"},{"bufferView":16,"componentType":5126,"count":4,"max":[1,6.123234262925839e-17,1],"min":[0,-6.123234262925839e-17,-1],"type":"VEC3"},{"bufferView":17,"componentType":5126,"count":4,"max":[38469,2800,-41549],"min":[36729,200,-41549],"type":"VEC3"},{"bufferView":18,"componentType":5123,"count":6,"max":[3],"min":[0],"type":"SCALAR"},{"bufferView":19,"componentType":5126,"count":4,"max":[1,6.118676828622917e-17,0.9992557764053345],"min":[-0.03857305645942688,-6.118676828622917e-17,-0.9992557764053345],"type":"VEC3"},{"bufferView":20,"componentType":5126,"count":4,"max":[38049,2800,345.3464050292969],"min":[35579,200,250],"type":"VEC3"},{"bufferView":21,"componentType":5123,"count":6,"max":[3],"min":[0],"type":"SCALAR"},{"bufferView":22,"componentType":5126,"count":4,"max":[1,6.123234262925839e-17,1],"min":[0,-6.123234262925839e-17,-1],"type":"VEC3"},{"bufferView":23,"componentType":5126,"count":4,"max":[35119,2800,250],"min":[33979,200,250],"type":"VEC3"},{"bufferView":24,"componentType":5123,"count":6,"max":[3],"min":[0],"type":"SCALAR"},{"bufferView":25,"componentType":5126,"count":4,"max":[0.12406455725431442,6.075926811077197e-17,0.9922741651535034],"min":[-0.12406455725431442,-6.123234262925839e-17,-1],"type":"VEC3"},{"bufferView":26,"componentType":5126,"count":4,"max":[32269,2800,350],"min":[31469.1953125,200,250],"type":"VEC3"},{"bufferView":27,"componentType":5123,"count":6,"max":[3],"min":[0],"type":"SCALAR"},{"bufferView":28,"componentType":5126,"count":4,"max":[1,6.123234262925839e-17,1],"min":[0,-6.123234262925839e-17,-1],"type":"VEC3"},{"bufferView":29,"componentType":5126,"count":4,"max":[30219,2800,250],"min":[28479,200,250],"type":"VEC3"},{"bufferView":30,"componentType":5123,"count":6,"max":[3],"min":[0],"type":"SCALAR"},{"bufferView":31,"componentType":5126,"count":4,"max":[1,6.123234262925839e-17,1],"min":[0,-6.123234262925839e-17,-1],"type":"VEC3"},{"bufferView":32,"componentType":5126,"count":4,"max":[27619,2800,250],"min":[25879,200,250],"type":"VEC3"},{"bufferView":33,"componentType":5123,"count":6,"max":[3],"min":[0],"type":"SCALAR"},{"bufferView":34,"componentType":5126,"count":4,"max":[1,6.123234262925839e-17,1],"min":[0,-6.123234262925839e-17,-1],"type":"VEC3"},{"bufferView":35,"componentType":5126,"count":4,"max":[14119,2800,1600],"min":[10629,200,1600],"type":"VEC3"},{"bufferView":36,"componentType":5123,"count":6,"max":[3],"min":[0],"type":"SCALAR"},{"bufferView":37,"componentType":5126,"count":4,"max":[1,6.123234262925839e-17,1],"min":[0,-6.123234262925839e-17,-1],"type":"VEC3"},{"bufferView":38,"componentType":5126,"count":4,"max":[7019,2800,250],"min":[5279,200,250],"type":"VEC3"},{"bufferView":39,"componentType":5123,"count":6,"max":[3],"min":[0],"type":"SCALAR"},{"bufferView":40,"componentType":5126,"count":104,"max":[70549,3000,1700],"min":[-28550,0,-58199],"type":"VEC3"},{"bufferView":41,"componentType":5126,"count":216,"max":[70549,3000,1700],"min":[-28550,0,-58199],"type":"VEC3"},{"bufferView":42,"componentType":5126,"count":216,"max":[70549,1700],"min":[-58199,-58199],"type":"VEC2"},{"bufferView":43,"componentType":5126,"count":216,"max":[1,1,1],"min":[-1,-1,-1],"type":"VEC3"}],"materials":[{"pbrMetallicRoughness":{"baseColorFactor":[0.5333333333333333,0.5490196078431373,0.8,1],"metallicFactor":0.5,"roughnessFactor":0.5},"alphaMode":"BLEND"},{"pbrMetallicRoughness":{"baseColorFactor":[0,1,1,1],"metallicFactor":0,"roughnessFactor":1},"alphaMode":"BLEND","doubleSided":true},{"pbrMetallicRoughness":{"baseColorFactor":[0.5333333333333333,0.5490196078431373,0.8,1],"metallicFactor":0.5,"roughnessFactor":0.5},"alphaMode":"BLEND"},{"pbrMetallicRoughness":{"baseColorFactor":[0,0,1,0.2],"metallicFactor":0,"roughnessFactor":1},"alphaMode":"BLEND","doubleSided":true}],"meshes":[{"primitives":[{"mode":3,"attributes":{"POSITION":0},"material":0}]},{"primitives":[{"mode":3,"attributes":{"POSITION":1},"material":0}]},{"primitives":[{"mode":3,"attributes":{"POSITION":2},"material":0}]},{"primitives":[{"mode":3,"attributes":{"POSITION":3},"material":0}]},{"primitives":[{"mode":3,"attributes":{"POSITION":4},"material":0}]},{"primitives":[{"mode":3,"attributes":{"POSITION":5},"material":0}]},{"primitives":[{"mode":3,"attributes":{"POSITION":6},"material":0}]},{"primitives":[{"mode":3,"attributes":{"POSITION":7},"material":0}]},{"primitives":[{"mode":3,"attributes":{"POSITION":8},"material":0}]},{"primitives":[{"mode":3,"attributes":{"POSITION":9},"material":0}]},{"primitives":[{"mode":4,"attributes":{"NORMAL":10,"POSITION":11},"indices":12,"material":1}]},{"primitives":[{"mode":4,"attributes":{"NORMAL":13,"POSITION":14},"indices":15,"material":1}]},{"primitives":[{"mode":4,"attributes":{"NORMAL":16,"POSITION":17},"indices":18,"material":1}]},{"primitives":[{"mode":4,"attributes":{"NORMAL":19,"POSITION":20},"indices":21,"material":1}]},{"primitives":[{"mode":4,"attributes":{"NORMAL":22,"POSITION":23},"indices":24,"material":1}]},{"primitives":[{"mode":4,"attributes":{"NORMAL":25,"POSITION":26},"indices":27,"material":1}]},{"primitives":[{"mode":4,"attributes":{"NORMAL":28,"POSITION":29},"indices":30,"material":1}]},{"primitives":[{"mode":4,"attributes":{"NORMAL":31,"POSITION":32},"indices":33,"material":1}]},{"primitives":[{"mode":4,"attributes":{"NORMAL":34,"POSITION":35},"indices":36,"material":1}]},{"primitives":[{"mode":4,"attributes":{"NORMAL":37,"POSITION":38},"indices":39,"material":1}]},{"primitives":[{"mode":1,"attributes":{"POSITION":40},"material":2}]},{"primitives":[{"mode":4,"attributes":{"POSITION":41,"TEXCOORD_0":42,"NORMAL":43},"extras":{"mergedUserData":[{}]},"material":3}]}]}