{
  "asset": {
    "version": "2.0",
    "generator": "THREE.GLTFExporter"
  },
  "scenes": [
    {
      "name": "AuxScene",
      "nodes": [
        0
      ]
    }
  ],
  "scene": 0,
  "nodes": [
    {
      "mesh": 0
    }
  ],
  "bufferViews": [
    {
      "buffer": 0,
      "byteOffset": 0,
      "byteLength": 33516,
      "target": 34962,
      "byteStride": 12
    },
    {
      "buffer": 0,
      "byteOffset": 33516,
      "byteLength": 33516,
      "target": 34962,
      "byteStride": 12
    },
    {
      "buffer": 0,
      "byteOffset": 67032,
      "byteLength": 22344,
      "target": 34962,
      "byteStride": 8
    },
    {
      "buffer": 0,
      "byteOffset": 89376,
      "byteLength": 10220,
      "target": 34963
    }
  ],
  "buffers": [
    {
      "byteLength": 99596,
      "uri": "data:application/octet-stream;base64,"
    }
  ],
  "accessors": [
    {
      "bufferView": 0,
      "componentType": 5126,
      "count": 2793,
      "max": [
        395.0379638671875,
        0.000029824859666405246,
        395.0379638671875
      ],
      "min": [
        -395.0379638671875,
        -395.0621337890625,
        -395.0379638671875
      ],
      "type": "VEC3"
    },
    {
      "bufferView": 1,
      "componentType": 5126,
      "count": 2793,
      "max": [
        0.9999999403953552,
        1,
        0.9999999403953552
      ],
      "min": [
        -0.9999999403953552,
        -1,
        -0.9999999403953552
      ],
      "type": "VEC3"
    },
    {
      "bufferView": 2,
      "componentType": 5126,
      "count": 2793,
      "max": [
        0.20614127814769745,
        1.1312378644943237
      ],
      "min": [
        -0.20614124834537506,
        0.8687664270401001
      ],
      "type": "VEC2"
    },
    {
      "bufferView": 3,
      "componentType": 5123,
      "count": 5109,
      "max": [
        2792
      ],
      "min": [
        0
      ],
      "type": "SCALAR"
    }
  ],
  "materials": [
    {
      "pbrMetallicRoughness": {
        "baseColorFactor": [
          0.058823529411764705,
          0.5843137254901961,
          1,
          0.24
        ],
        "metallicFactor": 0,
        "roughnessFactor": 1
      },
      "alphaMode": "BLEND",
      "doubleSided": true
    }
  ],
  "meshes": [
    {
      "primitives": [
        {
          "mode": 4,
          "attributes": {
            "POSITION": 0,
            "NORMAL": 1,
            "TEXCOORD_0": 2
          },
          "extras": {
            "mergedUserData": [
              {
                "mergedUserData": [
                  {
                    "mergedUserData": [
                      {}
                    ]
                  }
                ]
              }
            ]
          },
          "indices": 3,
          "material": 0
        }
      ]
    }
  ]
}