{
  "asset": {
    "version": "2.0",
    "generator": "THREE.GLTFExporter"
  },
  "scenes": [
    {
      "name": "AuxScene",
      "nodes": [
        0
      ]
    }
  ],
  "scene": 0,
  "nodes": [
    {
      "mesh": 0
    }
  ],
  "bufferViews": [
    {
      "buffer": 0,
      "byteOffset": 0,
      "byteLength": 2016,
      "target": 34962,
      "byteStride": 12
    },
    {
      "buffer": 0,
      "byteOffset": 2016,
      "byteLength": 2016,
      "target": 34962,
      "byteStride": 12
    },
    {
      "buffer": 0,
      "byteOffset": 4032,
      "byteLength": 1344,
      "target": 34962,
      "byteStride": 8
    },
    {
      "buffer": 0,
      "byteOffset": 5376,
      "byteLength": 1224,
      "target": 34963
    }
  ],
  "buffers": [
    {
      "byteLength": 6600,
      "uri": "data:application/octet-stream;base64,"
    }
  ],
  "accessors": [
    {
      "bufferView": 0,
      "componentType": 5126,
      "count": 168,
      "max": [
        55.22446823120117,
        19.945255279541016,
        55.22446823120117
      ],
      "min": [
        -55.22446823120117,
        -19.94526481628418,
        -55.22446823120117
      ],
      "type": "VEC3"
    },
    {
      "bufferView": 1,
      "componentType": 5126,
      "count": 168,
      "max": [
        0.9833022952079773,
        0.9866114258766174,
        0.9833022952079773
      ],
      "min": [
        -0.9833022952079773,
        -0.9866114258766174,
        -0.9833022952079773
      ],
      "type": "VEC3"
    },
    {
      "bufferView": 2,
      "componentType": 5126,
      "count": 168,
      "max": [
        1,
        1
      ],
      "min": [
        0,
        0
      ],
      "type": "VEC2"
    },
    {
      "bufferView": 3,
      "componentType": 5123,
      "count": 612,
      "max": [
        167
      ],
      "min": [
        0
      ],
      "type": "SCALAR"
    }
  ],
  "materials": [
    {
      "pbrMetallicRoughness": {
        "baseColorFactor": [
          0.058823529411764705,
          0.5843137254901961,
          1,
          0.24
        ],
        "metallicFactor": 0,
        "roughnessFactor": 1
      },
      "alphaMode": "BLEND",
      "doubleSided": true
    }
  ],
  "meshes": [
    {
      "primitives": [
        {
          "mode": 4,
          "attributes": {
            "POSITION": 0,
            "NORMAL": 1,
            "TEXCOORD_0": 2
          },
          "extras": {
            "mergedUserData": [
              {}
            ]
          },
          "indices": 3,
          "material": 0
        }
      ]
    }
  ]
}