{
  "asset": {
    "version": "2.0",
    "generator": "THREE.GLTFExporter"
  },
  "scenes": [
    {
      "name": "AuxScene",
      "nodes": [
        0
      ]
    }
  ],
  "scene": 0,
  "nodes": [
    {
      "mesh": 0
    }
  ],
  "bufferViews": [
    {
      "buffer": 0,
      "byteOffset": 0,
      "byteLength": 33288,
      "target": 34962,
      "byteStride": 12
    },
    {
      "buffer": 0,
      "byteOffset": 33288,
      "byteLength": 33288,
      "target": 34962,
      "byteStride": 12
    },
    {
      "buffer": 0,
      "byteOffset": 66576,
      "byteLength": 22192,
      "target": 34962,
      "byteStride": 8
    },
    {
      "buffer": 0,
      "byteOffset": 88768,
      "byteLength": 16748,
      "target": 34963
    }
  ],
  "buffers": [
    {
      "byteLength": 105516,
      "uri": "data:application/octet-stream;base64,"
    }
  ],
  "accessors": [
    {
      "bufferView": 0,
      "componentType": 5126,
      "count": 2774,
      "max": [
        60.953041076660156,
        403.8560485839844,
        89.30870056152344
      ],
      "min": [
        -60.953041076660156,
        -2.545094984389369e-16,
        -111.73800659179688
      ],
      "type": "VEC3"
    },
    {
      "bufferView": 1,
      "componentType": 5126,
      "count": 2774,
      "max": [
        1,
        1,
        1
      ],
      "min": [
        -1,
        -1,
        -1
      ],
      "type": "VEC3"
    },
    {
      "bufferView": 2,
      "componentType": 5126,
      "count": 2774,
      "max": [
        2.199977159500122,
        6.731309413909912
      ],
      "min": [
        -2.199977159500122,
        -2.335139751434326
      ],
      "type": "VEC2"
    },
    {
      "bufferView": 3,
      "componentType": 5123,
      "count": 8373,
      "max": [
        2773
      ],
      "min": [
        0
      ],
      "type": "SCALAR"
    }
  ],
  "materials": [
    {
      "pbrMetallicRoughness": {
        "baseColorFactor": [
          0.058823529411764705,
          0.5843137254901961,
          1,
          0.24
        ],
        "metallicFactor": 0,
        "roughnessFactor": 1
      },
      "alphaMode": "BLEND",
      "doubleSided": true
    }
  ],
  "meshes": [
    {
      "primitives": [
        {
          "mode": 4,
          "attributes": {
            "POSITION": 0,
            "NORMAL": 1,
            "TEXCOORD_0": 2
          },
          "extras": {
            "mergedUserData": [
              {},
              {},
              {}
            ]
          },
          "indices": 3,
          "material": 0
        }
      ]
    }
  ]
}